<svg width="178" height="245" viewBox="0 0 178 245" fill="none" xmlns="http://www.w3.org/2000/svg">
<path d="M142.536 115.396C137.517 115.396 134.39 111.817 133.445 110.751C132.5 109.686 125.609 100.512 123.644 97.4347C122.697 95.9223 121.332 93.2153 120.181 90.3963C118.972 87.4345 118 84.3492 118 82.3963C118 79.5554 118.364 78.598 119.5 76.3963C121.536 74.526 125.739 73.0028 128.438 71.1562L142.536 61.8878C144.359 60.7277 145.696 59.5085 146.548 58.2301C147.401 56.928 147.827 55.5194 147.827 54.0043C147.827 52.5601 147.247 51.2225 146.087 49.9915C144.927 48.7604 143.281 48.1567 141.151 48.1804C139.73 48.1804 138.499 48.5 137.458 49.1392C136.416 49.7547 135.599 50.5715 135.007 51.5895C134.439 52.5838 134.155 53.6965 134.155 54.9276C134.155 56.4427 134.148 58.3338 135 59.8963C135 59.8963 136.037 63.4744 137.458 65.2263C138.878 66.9545 141.814 68.1141 143.495 70.1264L177.976 109.686H162.209L133.445 77.6548C131.551 75.5005 129.657 73.2514 127.763 70.9077C125.893 68.5402 124.33 66.0308 123.075 63.3793C121.821 60.7041 121.193 57.804 121.193 54.679C121.193 51.1515 122.01 47.9792 123.644 45.1619C125.301 42.3447 127.621 40.1193 130.604 38.4858C133.587 36.8286 137.067 36 141.044 36C144.927 36 148.277 36.7931 151.094 38.3793C153.935 39.9418 156.113 42.0251 157.628 44.6293C159.167 47.2098 159.936 50.0507 159.936 53.152C159.936 56.5848 159.084 59.6979 157.379 62.4915C155.699 65.2614 153.331 67.7472 150.277 69.9489L135.433 80.6378C133.421 82.1056 131.93 83.6089 130.959 85.1477C130.012 86.6629 129.539 88.1188 129.539 89.5156C129.539 91.2438 129.965 92.7945 130.817 94.1676C131.669 95.5407 132.877 96.6297 134.439 97.4347C136.002 98.2159 137.836 98.6065 139.943 98.6065C142.5 98.6065 145.022 98.0265 147.507 96.8665C150.017 95.6828 152.29 94.0137 154.325 91.8594C156.385 89.6813 158.031 87.1009 159.262 84.1179C160.493 81.1349 161.108 77.8324 161.108 74.2102H173.644C173.644 78.661 173.158 82.6738 172.188 86.2486C171.217 89.7997 169.868 92.901 168.139 95.5526C166.411 98.1804 164.434 100.335 162.209 102.016C161.499 102.465 160.812 102.892 160.149 103.294C159.486 103.696 158.8 104.123 158.09 104.572C155.391 106.75 152.372 108.325 149.034 109.295C145.72 110.266 145.779 115.396 142.536 115.396Z" fill="#9C4B00"/>
<path d="M0 116.2C9.8 115 15.2 110.6 15.2 102.8V21.4C15.2 13.6 9.8 9 0 8V0H73.2C102.2 0 123.4 11.6 123.4 34C123.4 49 112.8 63 90.4 64.8C89 64.8 89 67.2 90.4 67.6C103 71 110 75.4 117 94C120.2 101 129.9 119.2 140.5 119.2L134.8 124.2C134.8 124.2 123.5 117.2 113 112.7C102.5 108.2 95.9479 111.2 94 108.7C92.0521 106.2 80.885 98.3835 76.4 88.6C71.2 76.4 67.4 71.2 58.8 71.2C51.8 71.2 49 74.8 49 82.4V102.8C49 110.6 82.5 105.7 86 109.7C88.0454 112.038 73.313 110.767 59.5 114.7C49.6772 117.497 38.8366 125.507 41.5 127.7C47.9088 132.976 0 124.2 0 124.2V116.2ZM49 48.4C49 56.4 51.8 60 60 60H64.8C83.6 60 88.6 44.2 88.6 34C88.6 23.2 83.4 10 69.4 10H58.2C51.2 10 49 14.8 49 23V48.4Z" fill="#9C4B00"/>
<path d="M89.2 244.2C54.6 244.2 22 221.2 22 179.2C22 138.6 53.2 114.8 92.8 114.8C126 114.8 144.6 131.4 144.6 148.4C144.6 157.4 139.2 166.6 126.8 166.6C114.8 166.6 110 158.6 108.8 149.8C107.2 135.6 100.2 123 85.2 123C67.6 123 59.4 140.8 59.4 165.8C59.4 208.2 85.8 234 103.4 234C111 234 112.8 229.8 112.8 222.6V208.2C112.8 192.6 109.4 191 95.2 189.8V184.6L155.2 184.4V189.8C145.2 191.2 142.6 192.6 142.6 208.2V223.6C142.6 228.6 142.6 235 143.2 240.2C143.4 242.6 141.8 243.2 139.6 242.2C135.4 240.4 131 239 124.6 239C112.6 239 105.6 244.2 89.2 244.2Z" fill="#9C4B00"/>
</svg>
