<svg width="100" height="116" viewBox="0 0 1038 245" fill="none" xmlns="http://www.w3.org/2000/svg">
<path d="M400.272 125.4C375.672 125.4 350.672 110.6 350.672 78.2C350.672 46 375.672 32.2 399.672 32.2C424.472 32.2 449.272 47 449.272 79.4C449.272 111.6 424.472 125.4 400.272 125.4ZM382.672 69.4C382.672 94.2 390.872 116.2 403.672 116.2C411.472 116.2 417.272 108.4 417.272 87.8C417.272 63.2 409.472 41.2 396.272 41.2C388.272 41.2 382.672 49.2 382.672 69.4Z" fill="#166C53"/>
<path d="M511.795 125.4C487.195 125.4 462.195 110.6 462.195 78.2C462.195 46 487.195 32.2 511.195 32.2C535.995 32.2 560.795 47 560.795 79.4C560.795 111.6 535.995 125.4 511.795 125.4ZM494.195 69.4C494.195 94.2 502.395 116.2 515.195 116.2C522.995 116.2 528.795 108.4 528.795 87.8C528.795 63.2 520.995 41.2 507.795 41.2C499.795 41.2 494.195 49.2 494.195 69.4Z" fill="#166C53"/>
<path d="M612.589 125.2C594.189 125.2 582.989 115 582.989 95.6V51.8C582.989 44.8 581.389 43.4 576.789 43.4H567.789V37C584.389 33.2 592.389 25.6 599.189 14.6C600.789 12 602.189 11.2 604.789 11.2H608.389C611.389 11.2 613.189 13 613.189 16L612.989 28.4C612.989 32.8 615.189 34 625.389 34H638.389V44.6L625.389 43.8C615.189 43.2 612.989 45 612.989 52.2V94.6C612.989 105.6 614.189 113 623.989 113C626.589 113 630.589 112.6 634.389 109.8C636.989 113 637.989 115.8 635.389 118.2C630.789 122.2 622.589 125.2 612.589 125.2Z" fill="#166C53"/>
<path d="M687.464 125C680.147 125 673.831 123.676 668.515 121.029C663.2 118.381 659.11 114.793 656.245 110.264C653.415 105.7 652 100.614 652 95.0048C652 90.8242 652.828 87.114 654.485 83.8741C656.142 80.6342 658.454 77.6556 661.423 74.9382C664.391 72.1861 667.842 69.4513 671.777 66.734L692.331 53.095C694.989 51.388 696.939 49.5938 698.181 47.7126C699.424 45.7965 700.045 43.7237 700.045 41.4941C700.045 39.369 699.199 37.4006 697.508 35.5891C695.817 33.7775 693.418 32.8892 690.312 32.924C688.241 32.924 686.446 33.3943 684.927 34.3349C683.409 35.2407 682.218 36.4426 681.355 37.9406C680.527 39.4038 680.113 41.0412 680.113 42.8527C680.113 45.0823 680.734 47.3468 681.976 49.6461C683.219 51.9454 684.876 54.384 686.947 56.962C689.017 59.5052 691.278 62.2573 693.729 65.2185L744 123.432H721.013L679.077 76.2969C676.316 73.1267 673.555 69.8171 670.793 66.3682C668.067 62.8844 665.789 59.1916 663.959 55.2898C662.13 51.3531 661.216 47.0855 661.216 42.4869C661.216 37.2961 662.406 32.6279 664.788 28.4822C667.204 24.3365 670.586 21.0618 674.935 18.658C679.284 16.2193 684.358 15 690.156 15C695.817 15 700.701 16.1671 704.808 18.5012C708.95 20.8005 712.125 23.8662 714.334 27.6983C716.578 31.4956 717.699 35.6762 717.699 40.2399C717.699 45.2914 716.457 49.8725 713.972 53.9834C711.521 58.0594 708.07 61.7173 703.617 64.9572L681.976 80.6865C679.043 82.8464 676.868 85.0586 675.453 87.323C674.072 89.5527 673.382 91.6952 673.382 93.7506C673.382 96.2937 674.003 98.5756 675.246 100.596C676.488 102.617 678.249 104.219 680.527 105.404C682.805 106.553 685.48 107.128 688.551 107.128C692.279 107.128 695.955 106.275 699.579 104.568C703.238 102.826 706.551 100.37 709.519 97.1995C712.522 93.9945 714.921 90.1972 716.716 85.8076C718.511 81.4181 719.408 76.5582 719.408 71.228H737.684C737.684 77.7775 736.976 83.6825 735.561 88.943C734.146 94.1687 732.179 98.7324 729.659 102.634C727.139 106.501 724.257 109.671 721.013 112.145C719.977 112.807 718.977 113.434 718.01 114.026C717.044 114.618 716.043 115.245 715.007 115.907C711.073 119.112 706.672 121.429 701.805 122.857C696.973 124.286 692.193 125 687.464 125Z" fill="#166C53"/>
<path d="M212 116.2C221.8 115 227.2 110.6 227.2 102.8V21.4C227.2 13.6 221.8 9 212 8V0H285.2C314.2 0 335.4 11.6 335.4 34C335.4 49 324.8 63 302.4 64.8C301 64.8 301 67.2 302.4 67.6C315 71 322 75.4 329 94C332.2 101 341.9 119.2 352.5 119.2L346.8 124.2C346.8 124.2 335.5 117.2 325 112.7C314.5 108.2 307.948 111.2 306 108.7C304.052 106.2 292.885 98.3835 288.4 88.6C283.2 76.4 279.4 71.2 270.8 71.2C263.8 71.2 261 74.8 261 82.4V102.8C261 110.6 294.5 105.7 298 109.7C300.045 112.038 285.313 110.767 271.5 114.7C261.677 117.497 250.837 125.507 253.5 127.7C259.909 132.976 212 124.2 212 124.2V116.2ZM261 48.4C261 56.4 263.8 60 272 60H276.8C295.6 60 300.6 44.2 300.6 34C300.6 23.2 295.4 10 281.4 10H270.2C263.2 10 261 14.8 261 23V48.4Z" fill="#166C53"/>
<path d="M400.272 125.4C375.672 125.4 350.672 110.6 350.672 78.2C350.672 46 375.672 32.2 399.672 32.2C424.472 32.2 449.272 47 449.272 79.4C449.272 111.6 424.472 125.4 400.272 125.4ZM382.672 69.4C382.672 94.2 390.872 116.2 403.672 116.2C411.472 116.2 417.272 108.4 417.272 87.8C417.272 63.2 409.472 41.2 396.272 41.2C388.272 41.2 382.672 49.2 382.672 69.4Z" fill="#166C53"/>
<path d="M511.795 125.4C487.195 125.4 462.195 110.6 462.195 78.2C462.195 46 487.195 32.2 511.195 32.2C535.995 32.2 560.795 47 560.795 79.4C560.795 111.6 535.995 125.4 511.795 125.4ZM494.195 69.4C494.195 94.2 502.395 116.2 515.195 116.2C522.995 116.2 528.795 108.4 528.795 87.8C528.795 63.2 520.995 41.2 507.795 41.2C499.795 41.2 494.195 49.2 494.195 69.4Z" fill="#166C53"/>
<path d="M612.589 125.2C594.189 125.2 582.989 115 582.989 95.6V51.8C582.989 44.8 581.389 43.4 576.789 43.4H567.789V37C584.389 33.2 592.389 25.6 599.189 14.6C600.789 12 602.189 11.2 604.789 11.2H608.389C611.389 11.2 613.189 13 613.189 16L612.989 28.4C612.989 32.8 615.189 34 625.389 34H638.389V44.6L625.389 43.8C615.189 43.2 612.989 45 612.989 52.2V94.6C612.989 105.6 614.189 113 623.989 113C626.589 113 630.589 112.6 634.389 109.8C636.989 113 637.989 115.8 635.389 118.2C630.789 122.2 622.589 125.2 612.589 125.2Z" fill="#166C53"/>
<path d="M301.2 244.2C266.6 244.2 234 221.2 234 179.2C234 138.6 265.2 114.8 304.8 114.8C338 114.8 356.6 131.4 356.6 148.4C356.6 157.4 351.2 166.6 338.8 166.6C326.8 166.6 322 158.6 320.8 149.8C319.2 135.6 312.2 123 297.2 123C279.6 123 271.4 140.8 271.4 165.8C271.4 208.2 297.8 234 315.4 234C323 234 324.8 229.8 324.8 222.6V208.2C324.8 192.6 321.4 191 307.2 189.8V184.6L367.2 184.4V189.8C357.2 191.2 354.6 192.6 354.6 208.2V223.6C354.6 228.6 354.6 235 355.2 240.2C355.4 242.6 353.8 243.2 351.6 242.2C347.4 240.4 343 239 336.6 239C324.6 239 317.6 244.2 301.2 244.2Z" fill="#166C53"/>
<path d="M376.941 234.4C386.341 233.8 389.741 230.8 389.741 220V174.2C389.741 164.8 384.541 163.2 377.141 163.8V156L409.741 150.6C416.541 149.6 419.741 152.6 419.741 157V160C419.741 164.8 423.341 165 426.141 161.4C431.741 154.8 438.541 149.4 448.941 149.4C461.341 149.4 471.741 157.4 471.741 169.6C471.741 179 465.141 186.6 453.941 186.6C433.941 186.6 447.541 164.6 435.541 164.6C427.141 164.6 419.741 175 419.741 201.2V220C419.741 230.8 423.141 233.8 433.541 234.4V242.2H376.941V234.4Z" fill="#166C53"/>
<path d="M529.303 243.4C504.703 243.4 479.703 228.6 479.703 196.2C479.703 164 504.703 150.2 528.703 150.2C553.503 150.2 578.303 165 578.303 197.4C578.303 229.6 553.503 243.4 529.303 243.4ZM511.703 187.4C511.703 212.2 519.903 234.2 532.703 234.2C540.503 234.2 546.303 226.4 546.303 205.8C546.303 181.2 538.503 159.2 525.303 159.2C517.303 159.2 511.703 167.2 511.703 187.4Z" fill="#166C53"/>
<path d="M625.777 243.4C611.777 243.4 596.577 237.6 596.577 206.2V174.4C596.577 165.2 591.377 163.6 583.977 163.8V156L616.577 150.6C623.377 149.6 626.577 152.6 626.577 158.6V201.4C626.577 215.4 632.377 225.4 643.177 225.4C654.177 225.4 659.777 215.4 659.777 201.4V174.4C659.777 165.2 654.577 163.6 647.177 163.8V156L679.577 150.6C686.577 149.6 689.777 152.6 689.777 158.6V221.8C689.777 228.4 692.377 232.8 698.177 230.4V234.8C695.377 241.6 688.177 243.4 681.377 243.4C666.977 243.4 662.977 234.4 661.977 230C661.377 227.2 659.777 225.8 658.377 225.8C656.977 225.8 655.977 227 654.977 228.4C649.377 236 641.577 243.4 625.777 243.4Z" fill="#166C53"/>
<path d="M807.948 243.4C795.148 243.4 785.948 236.2 785.948 221.4V189C785.948 177.2 779.948 167.2 769.348 167.2C758.548 167.2 752.748 177.2 752.748 189V220C752.748 230.8 756.148 233.8 765.148 234.4V242.2H709.948V234.4C719.348 233.8 722.748 230.8 722.748 220V174.2C722.748 164.8 717.548 163.2 710.148 163.8V156L742.748 150.6C749.548 149.6 752.748 152.6 752.748 157C752.748 163.6 756.948 165 759.548 161.8C764.748 155.2 771.948 149.4 786.548 149.4C800.548 149.4 815.948 155.2 815.948 184.4V221.8C815.948 228.4 818.548 232.6 824.348 230.4V234.8C821.548 241.6 814.348 243.4 807.948 243.4Z" fill="#166C53"/>
<path d="M872.591 243.4C853.791 243.4 834.391 228 834.391 198.4C834.391 166.6 856.191 150.2 877.391 150.2C899.391 150.2 905.191 167.4 905.191 147.2V135.2C905.191 125.8 899.991 124.2 892.591 124.8V117L925.191 111.6C931.991 110.6 935.191 113.6 935.191 119.6V221.8C935.191 228.4 937.791 232.8 943.591 230.4V234.8C940.791 241.6 933.591 243.4 927.391 243.4C920.591 243.4 911.991 241.2 909.591 235.2C907.991 231.4 906.191 229.4 903.191 229.4C899.191 229.4 891.191 243.4 872.591 243.4ZM866.591 188C866.591 207.8 875.391 227.2 888.191 227.2C895.991 227.2 905.191 221.6 905.191 204.8V195.4C905.191 169.4 892.991 159.2 882.991 159.2C872.791 159.2 866.591 171.8 866.591 188Z" fill="#166C53"/>
<path d="M993.856 243.4C980.656 243.4 969.056 239.4 961.856 234.4C956.456 223 955.856 210.2 964.256 210.2C967.656 210.2 969.656 211.6 970.656 214.8C975.456 229.6 983.856 234.6 994.256 234.6C1008.26 234.6 1009.86 227 1009.86 222.6C1009.86 217 1004.86 214.2 992.056 210.8C974.656 205.8 958.456 197.4 958.456 178.8C958.456 160 976.456 150.2 997.056 150.2C1009.46 150.2 1021.66 153.8 1028.86 159.2C1034.26 170.4 1034.86 183.2 1026.46 183.2C1023.06 183.2 1020.86 181.6 1019.86 178.4C1015.06 163.4 1006.26 158.4 996.856 158.4C988.256 158.4 985.056 163 985.056 169C985.056 176.2 991.656 180.8 999.256 182.8C1013.66 186.6 1037.06 192.2 1037.06 214C1037.06 234.4 1015.26 243.4 993.856 243.4Z" fill="#166C53"/>
<path d="M119.023 131.064C119.1 131.018 119.179 131.015 119.312 131.168C119.521 131.322 119.676 131.365 119.831 131.408C119.948 131.406 120.065 131.403 120.26 131.534C120.902 132.131 121.467 132.595 121.805 132.873C121.429 133.289 120.824 133.853 120.348 134.513C119.561 135.607 119.656 135.74 120.886 136.406C121.206 136.579 121.377 137.038 121.616 137.365C119.958 137.247 118.589 136.93 117.208 136.684C116.963 136.641 116.664 136.895 116.394 137.021C116.121 137.15 115.854 137.291 115.584 137.426C113.327 137.292 111.4 136.194 109.483 135.149C105.391 132.92 101.961 129.911 99.5665 125.807C98.8357 124.555 98.284 123.194 97.7005 121.986C96.9252 123.647 96.2647 125.522 95.2434 127.162C92.4483 131.653 88.5345 134.762 83.6497 136.725C79.0213 138.585 74.2568 139.041 69.3438 139.027C47.3433 138.965 25.3425 138.97 3.34198 139.022C1.30242 139.026 0.0356928 137.702 0.000561649 135.899C-0.0334381 134.155 1.48052 132.691 3.3699 132.689C20.3536 132.673 37.3373 132.678 54.321 132.663C60.1183 132.659 65.9309 132.875 71.709 132.523C78.8221 132.088 84.3649 128.558 87.9457 122.226C90.3753 117.93 90.6722 113.221 89.1371 108.582C87.0924 102.402 82.7894 98.4423 76.5193 97.0679C72.9421 96.2838 69.3309 96.933 65.8159 97.9269C61.2943 99.2055 56.6988 100.146 51.9984 99.7129C44.1856 98.9926 38.5634 95.0238 35.7487 87.424C33.3893 81.0534 33.8747 74.8039 37.2835 68.9396C39.0367 65.9234 41.5619 63.5435 44.5404 61.764C45.355 61.2773 45.6675 60.6927 45.8332 59.8475C46.6771 55.5414 47.895 51.3507 50.0547 47.5271C53.2999 41.7816 58.1202 38.0823 64.4293 36.4242C65.0613 36.2581 65.7006 36.1027 66.3459 36.0124C67.2007 35.8928 67.7889 35.5422 68.337 34.7756C72.5227 28.9204 77.9118 24.7353 84.9495 23.1778C87.8728 22.5309 90.9636 21.8292 93.8717 22.1512C98.1213 22.6216 102.284 21.7651 106.478 22.0656C112.199 22.4754 117.521 24.1255 122.192 27.6126C124.922 29.6511 127.296 32.0574 129.093 35.0189C129.476 35.6495 130.018 35.9506 130.847 36.1093C138.444 37.5641 144.359 41.4927 147.953 48.6435C149.803 52.325 150.883 56.2776 151.808 60.2851C151.922 60.7818 152.307 61.3521 152.73 61.6154C157.514 64.5939 160.824 68.74 162.395 74.2429C163.344 77.5687 163.509 80.8662 162.658 84.3413C161.409 89.4453 158.815 93.474 154.666 96.4773C151.733 98.6011 148.333 99.4829 144.795 99.7285C139.748 100.079 134.891 98.9699 130.066 97.595C125.621 96.3281 121.157 96.2705 116.891 98.2607C113.256 99.9568 110.776 102.86 109.118 106.581C106.078 113.406 107.914 122.919 113.566 127.541C114.289 128.132 115.052 128.672 115.858 129.395C116.743 130.508 117.758 131.052 119.023 131.064ZM77.7293 67.5256C79.2334 70.4447 81.5191 72.6373 84.0605 74.5903C87.3971 77.1544 91.2666 78.6987 95.0299 80.4225C95.8427 80.7948 95.915 81.1943 95.9151 81.8947C95.9165 88.6403 95.9308 95.3859 95.9434 102.132C95.9455 103.263 95.9163 104.396 95.9741 105.525C96.0541 107.086 97.1426 108.435 98.3484 108.565C99.862 108.729 101.066 107.942 101.376 106.164C101.687 104.377 101.578 102.517 101.779 100.704C101.865 99.9289 102.082 99.0176 102.566 98.4667C104.269 96.5299 106.048 94.649 107.925 92.8879C109.643 91.2768 111.64 90.4306 114.129 90.511C119.14 90.6728 124.162 90.6531 129.174 90.5049C132.814 90.3973 136.426 89.8789 139.731 88.1075C141.842 86.9769 143.749 85.5966 145.011 83.4742C145.891 81.9933 145.613 80.8267 144.223 79.8393C142.909 78.9053 141.808 79.0174 140.528 80.3313C138.641 82.268 136.474 83.7971 133.762 83.8753C128.22 84.0352 122.672 83.9654 117.127 83.9835C117.019 83.9839 116.91 83.9028 116.647 83.7984C116.916 83.471 117.123 83.193 117.355 82.9388C118.92 81.2265 120.663 79.649 122.01 77.7749C123.431 75.7983 124.59 73.5976 125.644 71.3861C126.428 69.7407 125.821 67.9291 124.62 67.3189C123.208 66.601 121.9 67.1796 120.828 68.9988C119.828 70.696 118.944 72.4789 117.809 74.0756C114.773 78.3438 111.198 82.1057 107.148 85.3985C105.399 86.8202 103.709 88.3162 101.828 89.9183C101.795 89.3099 101.759 88.9484 101.759 88.587C101.762 85.9892 101.854 83.388 101.747 80.7952C101.693 79.4768 102.169 78.7109 103.136 77.89C105.926 75.5199 108.713 73.1128 110.593 69.8537C111.231 68.7463 110.982 67.4433 110.013 66.6435C108.528 65.417 107.221 65.6763 105.833 67.3581C104.664 68.7755 103.41 70.1204 102.194 71.4975C102.041 71.4218 101.887 71.3462 101.734 71.2705C101.734 70.4511 101.735 69.6316 101.733 68.8121C101.729 65.544 101.754 62.2753 101.696 59.0081C101.683 58.286 101.468 57.528 101.182 56.8596C100.706 55.7477 99.7163 55.1151 98.5936 55.0673C97.4984 55.0208 96.7092 55.7428 96.3544 56.8502C96.1476 57.4956 95.9455 58.1427 95.6771 58.992C94.0967 57.3315 92.4874 55.8183 91.0906 54.1232C89.6921 52.4261 88.5323 50.5267 87.2087 48.7622C86.863 48.3014 86.3382 47.7819 85.8245 47.6863C84.0601 47.3579 81.6554 48.727 82.751 51.3225C83.5747 53.274 84.5587 55.2756 85.9257 56.8436C88.6902 60.0146 91.7725 62.8969 94.6998 65.9223C95.1683 66.4065 95.8188 66.9931 95.8592 67.5706C96.0015 69.6012 95.9145 71.6486 95.9145 73.8263C95.3205 73.6116 94.8738 73.4603 94.4343 73.2897C91.3893 72.1073 88.2744 71.0088 85.9514 68.5402C84.3331 66.8204 82.8492 64.965 81.3623 63.1225C80.3075 61.8153 79.1687 61.3316 78.1371 61.9116C76.8094 62.6581 76.3196 63.9831 76.8427 65.5722C77.0459 66.1897 77.3647 66.7677 77.7293 67.5256ZM69.6294 90.5748C75.2545 90.5748 80.8796 90.5748 86.559 90.5748C85.2752 88.5949 84.0708 86.8553 83.0035 85.0323C82.5877 84.3221 82.1758 84.0761 81.3805 84.0808C75.5902 84.1154 69.7994 84.1231 64.0093 84.0722C63.0976 84.0642 62.1629 83.7987 61.2841 83.5092C59.4436 82.9029 57.9496 81.7182 56.5821 80.3533C55.7405 79.5133 54.768 79.0573 53.5864 79.5159C51.7013 80.2475 51.2897 82.1467 52.608 84.034C54.0803 86.1419 56.0928 87.5797 58.3692 88.6237C61.8682 90.2283 65.6016 90.5679 69.6294 90.5748Z" fill="#166C53"/>
<path d="M115.643 137.501C115.856 137.291 116.123 137.15 116.396 137.021C116.666 136.895 116.965 136.641 117.21 136.685C118.591 136.93 119.96 137.247 121.618 137.365C121.379 137.038 121.208 136.579 120.888 136.406C119.658 135.74 119.563 135.607 120.35 134.513C120.826 133.853 121.431 133.289 121.807 132.873C121.469 132.595 120.904 132.131 120.338 131.579C122.929 132.567 125.651 132.682 128.402 132.679C150.03 132.661 171.658 132.653 193.286 132.669C194.078 132.67 194.925 132.827 195.65 133.141C196.932 133.697 197.706 135.105 197.54 136.223C197.324 137.667 196.164 138.778 194.641 138.98C194.358 139.018 194.066 139.003 193.779 139.003C170.547 139.003 147.315 139.05 124.083 138.938C121.286 138.925 118.494 138.051 115.643 137.501Z" fill="#166C53"/>
<path d="M118.972 130.988C117.759 131.052 116.744 130.508 115.908 129.467C116.905 129.889 117.913 130.401 118.972 130.988Z" fill="#111111"/>
<path d="M119.785 131.349C119.677 131.365 119.522 131.322 119.359 131.209C119.481 131.19 119.61 131.24 119.785 131.349Z" fill="#111111"/>
<path d="M77.6798 67.4446C77.3644 66.7677 77.0457 66.1896 76.8424 65.5721C76.3194 63.9831 76.8092 62.658 78.1369 61.9116C79.1685 61.3316 80.3072 61.8152 81.3621 63.1224C82.849 64.965 84.3328 66.8204 85.9511 68.5401C88.2741 71.0087 91.3891 72.1073 94.4341 73.2896C94.8735 73.4603 95.3202 73.6115 95.9142 73.8262C95.9142 71.6485 96.0013 69.6012 95.859 67.5705C95.8185 66.993 95.168 66.4065 94.6995 65.9223C91.7722 62.8969 88.6899 60.0145 85.9254 56.8435C84.5585 55.2756 83.5745 53.274 82.7507 51.3224C81.6552 48.727 84.0598 47.3579 85.8243 47.6863C86.3379 47.7819 86.8628 48.3013 87.2084 48.7621C88.5321 50.5267 89.6918 52.426 91.0903 54.1231C92.4872 55.8182 94.0964 57.3315 95.6769 58.992C95.9453 58.1426 96.1474 57.4956 96.3542 56.8501C96.709 55.7428 97.4982 55.0207 98.5934 55.0673C99.716 55.115 100.706 55.7476 101.182 56.8596C101.468 57.528 101.683 58.286 101.696 59.0081C101.754 62.2752 101.729 65.5439 101.733 68.8121C101.734 69.6316 101.733 70.451 101.733 71.2705C101.887 71.3461 102.04 71.4218 102.194 71.4974C103.41 70.1204 104.664 68.7755 105.833 67.3581C107.22 65.6762 108.528 65.417 110.013 66.6434C110.982 67.4432 111.231 68.7463 110.592 69.8537C108.713 73.1128 105.926 75.5199 103.135 77.8899C102.169 78.7109 101.693 79.4767 101.747 80.7951C101.853 83.388 101.762 85.9892 101.759 88.587C101.759 88.9484 101.795 89.3099 101.828 89.9183C103.709 88.3161 105.399 86.8201 107.148 85.3985C111.198 82.1056 114.772 78.3437 117.808 74.0756C118.944 72.4789 119.828 70.6959 120.828 68.9988C121.9 67.1796 123.208 66.601 124.62 67.3188C125.821 67.9291 126.427 69.7407 125.643 71.3861C124.59 73.5976 123.43 75.7982 122.01 77.7749C120.663 79.6489 118.92 81.2265 117.355 82.9387C117.123 83.193 116.916 83.471 116.647 83.7983C116.91 83.9028 117.019 83.9838 117.127 83.9835C122.672 83.9653 128.22 84.0351 133.762 83.8753C136.473 83.7971 138.641 82.268 140.527 80.3313C141.807 79.0174 142.909 78.9053 144.223 79.8392C145.612 80.8267 145.89 81.9932 145.01 83.4742C143.749 85.5966 141.841 86.9769 139.731 88.1075C136.425 89.8788 132.814 90.3973 129.174 90.5049C124.162 90.653 119.139 90.6727 114.129 90.5109C111.64 90.4306 109.642 91.2768 107.925 92.8879C106.048 94.6489 104.269 96.5298 102.566 98.4667C102.082 99.0176 101.865 99.9289 101.779 100.704C101.577 102.517 101.687 104.377 101.376 106.164C101.066 107.942 99.8618 108.729 98.3481 108.565C97.1424 108.435 96.0538 107.086 95.9739 105.525C95.9161 104.396 95.9453 103.263 95.9432 102.131C95.9306 95.3859 95.9162 88.6403 95.9149 81.8946C95.9147 81.1942 95.8425 80.7948 95.0297 80.4225C91.2663 78.6986 87.3968 77.1543 84.0602 74.5902C81.5188 72.6373 79.2332 70.4447 77.6798 67.4446ZM116.629 83.944C116.583 83.9415 116.537 83.939 116.491 83.9365C116.513 83.9598 116.535 83.9831 116.629 83.944Z" fill="#F9F9F9"/>
<path d="M69.5063 90.5749C65.6017 90.5679 61.8684 90.2283 58.3694 88.6237C56.0929 87.5797 54.0804 86.1419 52.6081 84.034C51.2899 82.1467 51.7015 80.2475 53.5865 79.5159C54.7681 79.0573 55.7407 79.5133 56.5822 80.3533C57.9497 81.7182 59.4438 82.9029 61.2843 83.5092C62.163 83.7987 63.0978 84.0642 64.0095 84.0722C69.7995 84.1231 75.5903 84.1154 81.3806 84.0808C82.1759 84.0761 82.5878 84.3222 83.0036 85.0323C84.0709 86.8553 85.2753 88.5949 86.5592 90.5748C80.8798 90.5748 75.2547 90.5748 69.5063 90.5749Z" fill="#F8F8F6"/>
<path d="M116.593 83.9759C116.535 83.984 116.512 83.9603 116.49 83.9365C116.537 83.9391 116.583 83.9416 116.593 83.9759Z" fill="#101010"/>
<path d="M86.2969 170.099C88.3453 166.59 88.8401 162.677 89.8423 158.922C90.1736 157.68 90.8239 156.491 91.5102 155.396C92.0485 154.538 92.9988 154.167 93.9966 154.616C94.9744 155.057 95.5966 155.87 95.6956 156.987C95.7583 157.694 95.7262 158.411 95.7261 159.123C95.7238 167.673 95.6259 176.225 95.7588 184.773C95.8177 188.567 94.4878 191.614 92.0747 194.333C90.1239 196.53 88.1842 198.738 86.2783 200.976C84.8684 202.632 83.9255 204.544 83.845 206.766C83.759 209.138 83.7187 211.518 83.8272 213.886C83.8834 215.113 84.8429 215.805 86.0039 215.829C87.1522 215.853 88.0389 215.201 88.3776 214.042C88.5607 213.415 88.6744 212.705 88.5834 212.067C87.8122 206.66 90.6983 203.004 94.2245 199.641C94.6593 199.226 95.1108 198.83 95.6752 198.315C95.7022 198.879 95.7416 199.319 95.7415 199.759C95.7393 207.932 95.7294 216.105 95.734 224.278C95.7342 224.77 95.7477 225.3 95.9171 225.748C96.4649 227.2 97.7726 228.126 98.8448 227.916C100.367 227.617 101.531 226.038 101.525 224.209C101.507 218.97 101.466 213.731 101.446 208.492C101.434 205.35 101.443 202.209 101.443 199.038C101.514 199.043 101.666 199.006 101.73 199.066C104.078 201.285 106.547 203.49 107.769 206.547C108.399 208.124 108.166 210.057 108.334 211.828C108.408 212.603 108.364 213.433 108.632 214.137C109.129 215.444 110.253 215.934 111.612 215.649C112.652 215.431 113.438 214.462 113.459 213.21C113.493 211.199 113.597 209.174 113.413 207.18C113.195 204.809 112.025 202.784 110.522 200.999C108.808 198.964 106.985 197.024 105.284 194.979C102.912 192.126 101.486 188.956 101.538 185.051C101.66 175.999 101.546 166.945 101.591 157.892C101.595 157.038 101.876 156.07 102.334 155.359C103.092 154.179 104.766 154.246 105.668 155.305C106.865 156.708 107.216 158.41 107.502 160.115C108.182 164.161 109.097 168.108 111.552 171.478C112.516 172.799 113.56 174.067 114.65 175.283C115.238 175.939 115.509 176.589 115.505 177.485C115.48 182.892 115.477 188.299 115.544 193.705C115.556 194.669 115.845 195.659 116.159 196.583C116.488 197.552 117.345 197.915 118.301 197.909C119.233 197.903 119.999 197.498 120.3 196.544C120.547 195.765 120.824 194.949 120.834 194.146C120.886 190.123 120.856 186.099 120.854 182.076C120.854 181.624 120.854 181.172 120.854 180.407C121.493 180.872 121.931 181.178 122.356 181.503C123.876 182.665 125.362 183.878 126.922 184.981C127.858 185.642 128.249 186.456 128.251 187.59C128.257 191.32 128.292 195.05 128.355 198.779C128.369 199.603 128.454 200.45 128.666 201.242C128.988 202.443 129.969 202.995 131.084 203C132.135 203.006 132.912 202.325 133.228 201.268C133.393 200.719 133.491 200.128 133.496 199.555C133.522 196.499 133.508 193.443 133.508 190.171C134.268 190.677 134.958 191.116 135.627 191.584C141.259 195.526 146.875 199.491 152.527 203.402C153.733 204.238 155.018 205.079 156.622 204.614C157.811 204.269 158.476 203.395 158.658 202.202C158.836 201.034 158.37 200.067 157.42 199.385C155.069 197.696 152.703 196.029 150.348 194.346C145.566 190.928 140.749 187.56 136.019 184.07C131.455 180.703 126.931 177.274 122.483 173.749C118.425 170.534 115.148 166.664 113.684 161.485C113.528 160.931 113.384 160.348 113.381 159.777C113.357 155.252 113.368 150.726 113.373 146.201C113.373 146.085 113.432 145.969 113.513 145.667C114.369 146.178 115.183 146.635 115.969 147.139C121.729 150.836 127.488 154.538 133.24 158.25C136.996 160.673 140.723 163.143 144.498 165.536C146.182 166.603 147.997 167.456 149.671 168.537C152.023 170.057 153.071 172.412 153.185 175.162C153.288 177.631 153.19 180.107 153.209 182.58C153.222 184.355 154.256 185.528 155.782 185.562C157.388 185.599 158.411 184.56 158.43 182.705C158.459 179.772 158.461 176.837 158.372 173.906C158.292 171.293 156.855 169.214 155.518 167.127C155.014 166.339 154.386 165.633 153.715 164.759C154.143 164.687 154.439 164.597 154.737 164.594C156.094 164.577 157.462 164.694 158.807 164.563C163.189 164.138 166.962 165.724 170.484 168.128C172.697 169.638 174.846 171.245 177.006 172.833C177.983 173.551 179.336 173.718 180.075 173.141C180.823 172.557 181.057 171.182 180.697 170.028C179.926 167.554 177.995 166.139 176.05 164.788C172.123 162.06 168.018 159.625 163.34 158.515C161.442 158.064 159.44 158.037 157.48 157.901C156.21 157.812 154.921 157.767 153.658 157.89C149.476 158.296 145.833 156.743 142.264 154.822C137.478 152.246 132.68 149.695 127.878 147.149C127.207 146.793 126.488 146.531 125.791 146.226C125.824 146.091 125.856 145.957 125.889 145.823C126.611 145.823 127.333 145.823 128.055 145.823C149.893 145.818 171.731 145.812 193.569 145.81C196.052 145.81 197.154 146.785 196.909 149.272C196.625 152.156 196.07 155.022 195.477 157.863C194.92 160.537 194.327 163.227 193.452 165.805C192.032 169.992 190.492 174.148 188.778 178.218C186.633 183.309 183.73 187.975 180.568 192.483C175.31 199.978 169.087 206.532 162.106 212.351C153.995 219.112 145.286 224.866 135.485 228.816C130.601 230.785 125.69 232.622 120.515 233.605C116.8 234.311 113.094 235.278 109.345 235.528C103.181 235.941 96.976 236.127 90.8054 235.906C86.7144 235.76 82.6531 234.74 78.5794 234.105C72.8964 233.22 67.5034 231.281 62.1957 229.152C58.6993 227.75 55.3202 226.009 51.9839 224.234C44.4358 220.217 37.6675 215.069 31.2958 209.323C27.0603 205.504 23.2952 201.262 19.7713 196.793C16.1648 192.219 12.9333 187.356 10.2804 182.145C8.42168 178.494 6.70931 174.746 5.22793 170.922C3.94342 167.606 2.9375 164.158 2.06304 160.702C1.22127 157.376 0.643343 153.974 0.0850492 150.582C-0.0823042 149.565 -0.00469145 148.393 0.335747 147.43C0.791553 146.141 1.99382 145.796 3.31361 145.798C17.6668 145.811 32.0199 145.803 46.3731 145.802C53.7758 145.801 61.1786 145.8 68.5814 145.803C68.9339 145.803 69.2863 145.841 69.8951 145.877C65.6803 148.353 61.684 150.675 57.7142 153.043C54.6587 154.865 51.5845 156.64 48.118 157.53C47.3324 157.732 46.5019 157.803 45.6886 157.832C42.733 157.939 39.7756 157.991 36.8194 158.084C32.5425 158.217 28.7391 159.922 25.115 162.007C22.9468 163.255 20.991 164.883 18.9277 166.323C16.8985 167.738 16.9792 170.057 16.6405 172.129C16.4918 173.038 17.4803 173.452 18.3053 173.274C18.9509 173.136 19.5567 172.709 20.1299 172.331C23.1468 170.343 26.0802 168.212 29.1786 166.368C31.1471 165.196 33.3831 164.568 35.7298 164.581C38.1506 164.594 40.5716 164.583 43.2419 164.583C42.7855 165.342 42.4999 165.973 42.0797 166.49C39.5279 169.63 38.279 173.185 38.527 177.293C38.6329 179.046 38.53 180.812 38.549 182.572C38.5687 184.398 39.5794 185.518 41.1694 185.523C42.6418 185.528 43.715 184.258 43.7137 182.501C43.7125 180.741 43.7736 178.977 43.6835 177.221C43.4311 172.299 45.7571 169.029 49.8122 166.671C54.5758 163.902 59.2892 161.038 63.9622 158.112C70.4537 154.048 76.8873 149.888 83.5205 145.657C83.5494 146.176 83.5905 146.567 83.5901 146.958C83.5857 151.108 83.7136 155.264 83.5231 159.404C83.361 162.927 81.8007 165.987 79.7165 168.774C77.0753 172.306 73.5838 174.838 70.0753 177.346C64.4743 181.351 58.8464 185.317 53.241 189.316C48.7107 192.547 44.186 195.787 39.6807 199.054C37.8094 200.412 37.5618 202.59 39.0501 203.946C40.0496 204.856 41.5078 204.975 42.9111 204.053C46.6119 201.62 50.2975 199.16 53.932 196.625C56.8394 194.598 59.6612 192.443 62.5262 190.352C62.8777 190.096 63.2614 189.885 63.812 189.539C63.812 191.751 63.8115 193.79 63.8122 195.829C63.8127 197.296 63.7932 198.763 63.8222 200.23C63.8516 201.715 64.7732 202.87 65.9941 203.025C67.1057 203.166 68.3212 202.149 68.6349 200.76C68.753 200.237 68.804 199.688 68.8077 199.15C68.8365 195.001 68.8249 190.852 68.889 186.704C68.8969 186.192 69.136 185.501 69.5073 185.207C71.4593 183.661 73.486 182.213 75.4951 180.743C75.6462 180.632 75.8624 180.614 76.2545 180.485C76.2545 182.492 76.2507 184.36 76.2555 186.228C76.2625 188.952 76.2179 191.679 76.3204 194.4C76.3529 195.26 76.6534 196.181 77.0699 196.938C77.5495 197.81 78.4751 198.055 79.4311 197.784C80.3508 197.523 81.0309 196.95 81.1998 195.931C81.2882 195.398 81.3493 194.854 81.3522 194.314C81.3817 188.824 81.4141 183.333 81.3995 177.843C81.3969 176.859 81.6895 176.136 82.3237 175.378C83.715 173.714 84.9634 171.926 86.2969 170.099ZM128.437 213.186C128.437 214.899 128.402 216.613 128.449 218.325C128.486 219.704 129.648 220.992 130.822 221.076C131.833 221.147 133.181 220.042 133.273 218.762C133.417 216.773 133.434 214.761 133.318 212.77C133.24 211.444 132.08 210.439 131.019 210.435C129.818 210.43 128.703 211.527 128.437 213.186ZM68.7488 217.249C68.6964 215.708 68.7163 214.161 68.5686 212.63C68.4516 211.417 67.115 210.371 66.0261 210.452C64.8013 210.544 63.8416 211.604 63.8173 212.964C63.7836 214.841 63.7862 216.719 63.7839 218.596C63.7823 219.935 64.609 220.802 65.7308 220.949C66.4574 221.045 67.5104 220.575 67.9977 219.994C68.5083 219.385 68.5175 218.339 68.7488 217.249ZM73.679 164.769C73.3181 163.053 72.4565 162.246 71.1472 162.397C69.9248 162.538 68.9491 163.624 68.9091 164.888C68.8624 166.367 69.5792 167.312 70.8378 167.431C72.4565 167.584 73.4142 166.754 73.679 164.769ZM125.964 162.551C124.614 162.72 123.704 163.682 123.681 164.964C123.661 166.137 124.552 167.267 125.633 167.437C127.252 167.692 128.314 166.979 128.485 165.522C128.678 163.883 127.795 162.743 125.964 162.551Z" fill="#166C53"/>
</svg>
