<svg width="100" height="116"  viewBox="0 0 867 245" fill="none" xmlns="http://www.w3.org/2000/svg">
<path d="M24.5709 233.5C19.552 233.5 15.2196 232.6 11.5737 230.801C7.9279 229.002 5.1225 226.563 3.15754 223.486C1.21625 220.384 0.245605 216.928 0.245605 213.116C0.245605 210.276 0.813787 207.754 1.95015 205.553C3.08651 203.351 4.67269 201.327 6.70867 199.48C8.74466 197.61 11.1121 195.751 13.8109 193.905L27.909 184.636C29.7319 183.476 31.0695 182.257 31.9217 180.979C32.774 179.677 33.2002 178.268 33.2002 176.753C33.2002 175.309 32.6201 173.971 31.4601 172.74C30.3001 171.509 28.6547 170.905 26.524 170.929C25.1036 170.929 23.8725 171.249 22.8308 171.888C21.7892 172.503 20.9724 173.32 20.3805 174.338C19.8124 175.332 19.5283 176.445 19.5283 177.676C19.5283 179.191 19.9544 180.73 20.8067 182.293C21.659 183.855 22.7953 185.512 24.2158 187.264C25.6362 188.992 27.1869 190.863 28.8678 192.875L63.3493 232.435H47.5823L18.818 200.403C16.9241 198.249 15.0302 196 13.1362 193.656C11.266 191.289 9.70347 188.779 8.44873 186.128C7.194 183.453 6.56663 180.553 6.56663 177.428C6.56663 173.9 7.38339 170.728 9.01691 167.911C10.6741 165.093 12.9942 162.868 15.9771 161.234C18.9601 159.577 22.4402 158.749 26.4175 158.749C30.3001 158.749 33.65 159.542 36.4672 161.128C39.3081 162.69 41.4861 164.774 43.0013 167.378C44.5401 169.958 45.3095 172.799 45.3095 175.901C45.3095 179.333 44.4573 182.447 42.7527 185.24C41.0718 188.01 38.7044 190.496 35.6504 192.697L20.8067 203.386C18.7944 204.854 17.3029 206.357 16.3323 207.896C15.3853 209.411 14.9118 210.867 14.9118 212.264C14.9118 213.992 15.3379 215.543 16.1902 216.916C17.0425 218.289 18.2499 219.378 19.8124 220.183C21.3749 220.965 23.2096 221.355 25.3166 221.355C27.8734 221.355 30.3948 220.775 32.8806 219.615C35.39 218.431 37.6627 216.762 39.6987 214.608C41.7584 212.43 43.4038 209.849 44.6348 206.866C45.8659 203.884 46.4814 200.581 46.4814 196.959H59.0169C59.0169 201.41 58.5316 205.422 57.5609 208.997C56.5903 212.548 55.2409 215.65 53.5127 218.301C51.7844 220.929 49.8076 223.083 47.5823 224.764C46.872 225.214 46.1855 225.64 45.5226 226.043C44.8597 226.445 44.1732 226.871 43.4629 227.321C40.7641 229.499 37.7456 231.073 34.4075 232.044C31.0931 233.015 27.8143 233.5 24.5709 233.5Z" fill="black"/>
<path d="M41 117C50.8 115.8 56.2 111.4 56.2 103.6V22.2C56.2 14.4 50.8 9.79999 41 8.79999V0.799988H114.2C143.2 0.799988 164.4 12.4 164.4 34.8C164.4 49.8 153.8 63.8 131.4 65.6C130 65.6 130 68 131.4 68.4C144 71.8 151 76.2 158 94.8C161.2 101.8 170.9 120 181.5 120L175.8 125C175.8 125 164.5 118 154 113.5C143.5 109 136.948 112 135 109.5C133.052 107 121.885 99.1835 117.4 89.4C112.2 77.2 108.4 72 99.8 72C92.8 72 90 75.6 90 83.2V103.6C90 111.4 123.5 106.5 127 110.5C129.045 112.838 114.313 111.567 100.5 115.5C90.6772 118.297 79.8366 126.307 82.5 128.5C88.9088 133.776 41 125 41 125V117ZM90 49.2C90 57.2 92.8 60.8 101 60.8H105.8C124.6 60.8 129.6 45 129.6 34.8C129.6 24 124.4 10.8 110.4 10.8H99.2C92.2 10.8 90 15.6 90 23.8V49.2Z" fill="black"/>
<path d="M229.272 126.2C204.672 126.2 179.672 111.4 179.672 79C179.672 46.8 204.672 33 228.672 33C253.472 33 278.272 47.8 278.272 80.2C278.272 112.4 253.472 126.2 229.272 126.2ZM211.672 70.2C211.672 95 219.872 117 232.672 117C240.472 117 246.272 109.2 246.272 88.6C246.272 64 238.472 42 225.272 42C217.272 42 211.672 50 211.672 70.2Z" fill="black"/>
<path d="M340.795 126.2C316.195 126.2 291.195 111.4 291.195 79C291.195 46.8 316.195 33 340.195 33C364.995 33 389.795 47.8 389.795 80.2C389.795 112.4 364.995 126.2 340.795 126.2ZM323.195 70.2C323.195 95 331.395 117 344.195 117C351.995 117 357.795 109.2 357.795 88.6C357.795 64 349.995 42 336.795 42C328.795 42 323.195 50 323.195 70.2Z" fill="black"/>
<path d="M441.589 126C423.189 126 411.989 115.8 411.989 96.4V52.6C411.989 45.6 410.389 44.2 405.789 44.2H396.789V37.8C413.389 34 421.389 26.4 428.189 15.4C429.789 12.8 431.189 12 433.789 12H437.389C440.389 12 442.189 13.8 442.189 16.8L441.989 29.2C441.989 33.6 444.189 34.8 454.389 34.8H467.389V45.4L454.389 44.6C444.189 44 441.989 45.8 441.989 53V95.4C441.989 106.4 443.189 113.8 452.989 113.8C455.589 113.8 459.589 113.4 463.389 110.6C465.989 113.8 466.989 116.6 464.389 119C459.789 123 451.589 126 441.589 126Z" fill="black"/>
<path d="M229.272 126.2C204.672 126.2 179.672 111.4 179.672 79C179.672 46.8 204.672 33 228.672 33C253.472 33 278.272 47.8 278.272 80.2C278.272 112.4 253.472 126.2 229.272 126.2ZM211.672 70.2C211.672 95 219.872 117 232.672 117C240.472 117 246.272 109.2 246.272 88.6C246.272 64 238.472 42 225.272 42C217.272 42 211.672 50 211.672 70.2Z" fill="black"/>
<path d="M340.795 126.2C316.195 126.2 291.195 111.4 291.195 79C291.195 46.8 316.195 33 340.195 33C364.995 33 389.795 47.8 389.795 80.2C389.795 112.4 364.995 126.2 340.795 126.2ZM323.195 70.2C323.195 95 331.395 117 344.195 117C351.995 117 357.795 109.2 357.795 88.6C357.795 64 349.995 42 336.795 42C328.795 42 323.195 50 323.195 70.2Z" fill="black"/>
<path d="M441.589 126C423.189 126 411.989 115.8 411.989 96.4V52.6C411.989 45.6 410.389 44.2 405.789 44.2H396.789V37.8C413.389 34 421.389 26.4 428.189 15.4C429.789 12.8 431.189 12 433.789 12H437.389C440.389 12 442.189 13.8 442.189 16.8L441.989 29.2C441.989 33.6 444.189 34.8 454.389 34.8H467.389V45.4L454.389 44.6C444.189 44 441.989 45.8 441.989 53V95.4C441.989 106.4 443.189 113.8 452.989 113.8C455.589 113.8 459.589 113.4 463.389 110.6C465.989 113.8 466.989 116.6 464.389 119C459.789 123 451.589 126 441.589 126Z" fill="black"/>
<path d="M130.2 245C95.6 245 63 222 63 180C63 139.4 94.2 115.6 133.8 115.6C167 115.6 185.6 132.2 185.6 149.2C185.6 158.2 180.2 167.4 167.8 167.4C155.8 167.4 151 159.4 149.8 150.6C148.2 136.4 141.2 123.8 126.2 123.8C108.6 123.8 100.4 141.6 100.4 166.6C100.4 209 126.8 234.8 144.4 234.8C152 234.8 153.8 230.6 153.8 223.4V209C153.8 193.4 150.4 191.8 136.2 190.6V185.4L196.2 185.2V190.6C186.2 192 183.6 193.4 183.6 209V224.4C183.6 229.4 183.6 235.8 184.2 241C184.4 243.4 182.8 244 180.6 243C176.4 241.2 172 239.8 165.6 239.8C153.6 239.8 146.6 245 130.2 245Z" fill="black"/>
<path d="M205.941 235.2C215.341 234.6 218.741 231.6 218.741 220.8V175C218.741 165.6 213.541 164 206.141 164.6V156.8L238.741 151.4C245.541 150.4 248.741 153.4 248.741 157.8V160.8C248.741 165.6 252.341 165.8 255.141 162.2C260.741 155.6 267.541 150.2 277.941 150.2C290.341 150.2 300.741 158.2 300.741 170.4C300.741 179.8 294.141 187.4 282.941 187.4C262.941 187.4 276.541 165.4 264.541 165.4C256.141 165.4 248.741 175.8 248.741 202V220.8C248.741 231.6 252.141 234.6 262.541 235.2V243H205.941V235.2Z" fill="black"/>
<path d="M358.303 244.2C333.703 244.2 308.703 229.4 308.703 197C308.703 164.8 333.703 151 357.703 151C382.503 151 407.303 165.8 407.303 198.2C407.303 230.4 382.503 244.2 358.303 244.2ZM340.703 188.2C340.703 213 348.903 235 361.703 235C369.503 235 375.303 227.2 375.303 206.6C375.303 182 367.503 160 354.303 160C346.303 160 340.703 168 340.703 188.2Z" fill="black"/>
<path d="M454.777 244.2C440.777 244.2 425.577 238.4 425.577 207V175.2C425.577 166 420.377 164.4 412.977 164.6V156.8L445.577 151.4C452.377 150.4 455.577 153.4 455.577 159.4V202.2C455.577 216.2 461.377 226.2 472.177 226.2C483.177 226.2 488.777 216.2 488.777 202.2V175.2C488.777 166 483.577 164.4 476.177 164.6V156.8L508.577 151.4C515.577 150.4 518.777 153.4 518.777 159.4V222.6C518.777 229.2 521.377 233.6 527.177 231.2V235.6C524.377 242.4 517.177 244.2 510.377 244.2C495.977 244.2 491.977 235.2 490.977 230.8C490.377 228 488.777 226.6 487.377 226.6C485.977 226.6 484.977 227.8 483.977 229.2C478.377 236.8 470.577 244.2 454.777 244.2Z" fill="black"/>
<path d="M636.948 244.2C624.148 244.2 614.948 237 614.948 222.2V189.8C614.948 178 608.948 168 598.348 168C587.548 168 581.748 178 581.748 189.8V220.8C581.748 231.6 585.148 234.6 594.148 235.2V243H538.948V235.2C548.348 234.6 551.748 231.6 551.748 220.8V175C551.748 165.6 546.548 164 539.148 164.6V156.8L571.748 151.4C578.548 150.4 581.748 153.4 581.748 157.8C581.748 164.4 585.948 165.8 588.548 162.6C593.748 156 600.948 150.2 615.548 150.2C629.548 150.2 644.948 156 644.948 185.2V222.6C644.948 229.2 647.548 233.4 653.348 231.2V235.6C650.548 242.4 643.348 244.2 636.948 244.2Z" fill="black"/>
<path d="M701.591 244.2C682.791 244.2 663.391 228.8 663.391 199.2C663.391 167.4 685.191 151 706.391 151C728.391 151 734.191 168.2 734.191 148V136C734.191 126.6 728.991 125 721.591 125.6V117.8L754.191 112.4C760.991 111.4 764.191 114.4 764.191 120.4V222.6C764.191 229.2 766.791 233.6 772.591 231.2V235.6C769.791 242.4 762.591 244.2 756.391 244.2C749.591 244.2 740.991 242 738.591 236C736.991 232.2 735.191 230.2 732.191 230.2C728.191 230.2 720.191 244.2 701.591 244.2ZM695.591 188.8C695.591 208.6 704.391 228 717.191 228C724.991 228 734.191 222.4 734.191 205.6V196.2C734.191 170.2 721.991 160 711.991 160C701.791 160 695.591 172.6 695.591 188.8Z" fill="black"/>
<path d="M822.856 244.2C809.656 244.2 798.056 240.2 790.856 235.2C785.456 223.8 784.856 211 793.256 211C796.656 211 798.656 212.4 799.656 215.6C804.456 230.4 812.856 235.4 823.256 235.4C837.256 235.4 838.856 227.8 838.856 223.4C838.856 217.8 833.856 215 821.056 211.6C803.656 206.6 787.456 198.2 787.456 179.6C787.456 160.8 805.456 151 826.056 151C838.456 151 850.656 154.6 857.856 160C863.256 171.2 863.856 184 855.456 184C852.056 184 849.856 182.4 848.856 179.2C844.056 164.2 835.256 159.2 825.856 159.2C817.256 159.2 814.056 163.8 814.056 169.8C814.056 177 820.656 181.6 828.256 183.6C842.656 187.4 866.056 193 866.056 214.8C866.056 235.2 844.256 244.2 822.856 244.2Z" fill="black"/>
</svg>
