<svg width="100" height="116" viewBox="0 0 860 416" fill="none" xmlns="http://www.w3.org/2000/svg">
<path d="M29.3381 323.065C24.3191 323.065 19.9867 322.166 16.3409 320.366C12.6951 318.567 9.88968 316.129 7.92472 313.051C5.98343 309.95 5.01278 306.493 5.01278 302.682C5.01278 299.841 5.58097 297.32 6.71733 295.118C7.85369 292.916 9.43987 290.892 11.4759 289.045C13.5118 287.175 15.8793 285.317 18.5781 283.47L32.6761 274.202C34.4991 273.042 35.8366 271.822 36.6889 270.544C37.5412 269.242 37.9673 267.833 37.9673 266.318C37.9673 264.874 37.3873 263.536 36.2273 262.305C35.0672 261.074 33.4219 260.471 31.2912 260.494C29.8707 260.494 28.6397 260.814 27.598 261.453C26.5563 262.069 25.7396 262.885 25.1477 263.903C24.5795 264.898 24.2955 266.01 24.2955 267.241C24.2955 268.757 24.7216 270.295 25.5739 271.858C26.4261 273.42 27.5625 275.078 28.983 276.83C30.4034 278.558 31.9541 280.428 33.6349 282.44L68.1165 322H52.3494L23.5852 289.969C21.6913 287.814 19.7973 285.565 17.9034 283.222C16.0331 280.854 14.4706 278.345 13.2159 275.693C11.9612 273.018 11.3338 270.118 11.3338 266.993C11.3338 263.465 12.1506 260.293 13.7841 257.476C15.4413 254.659 17.7614 252.433 20.7443 250.8C23.7273 249.143 27.2074 248.314 31.1847 248.314C35.0672 248.314 38.4171 249.107 41.2344 250.693C44.0753 252.256 46.2533 254.339 47.7685 256.943C49.3073 259.524 50.0767 262.365 50.0767 265.466C50.0767 268.899 49.2244 272.012 47.5199 274.805C45.839 277.575 43.4716 280.061 40.4176 282.263L25.5739 292.952C23.5616 294.42 22.0701 295.923 21.0994 297.462C20.1525 298.977 19.679 300.433 19.679 301.83C19.679 303.558 20.1051 305.108 20.9574 306.482C21.8097 307.855 23.017 308.944 24.5795 309.749C26.142 310.53 27.9768 310.92 30.0838 310.92C32.6406 310.92 35.1619 310.34 37.6477 309.18C40.1572 307.997 42.4299 306.328 44.4659 304.173C46.5256 301.995 48.1709 299.415 49.402 296.432C50.6331 293.449 51.2486 290.146 51.2486 286.524H63.7841C63.7841 290.975 63.2988 294.988 62.3281 298.562C61.3575 302.114 60.0081 305.215 58.2798 307.866C56.5516 310.494 54.5748 312.649 52.3494 314.33C51.6392 314.779 50.9527 315.205 50.2898 315.608C49.6269 316.01 48.9403 316.437 48.2301 316.886C45.5313 319.064 42.5128 320.639 39.1747 321.609C35.8603 322.58 32.5814 323.065 29.3381 323.065Z" fill="black"/>
<path d="M4.8 215.2C14.2 214.6 17.6 211.6 17.6 200.8V155C17.6 145.6 12.4 144 5 144.6V136.8L37.6 131.4C44.4 130.4 47.6 133.4 47.6 137.8V140.8C47.6 145.6 51.2 145.8 54 142.2C59.6 135.6 66.4 130.2 76.8 130.2C89.2 130.2 99.6 138.2 99.6 150.4C99.6 159.8 93 167.4 81.8 167.4C61.8 167.4 75.4 145.4 63.4 145.4C55 145.4 47.6 155.8 47.6 182V200.8C47.6 211.6 51 214.6 61.4 215.2V223H4.8V215.2ZM157.163 224.2C132.563 224.2 107.563 209.4 107.563 177C107.563 144.8 132.563 131 156.563 131C181.363 131 206.163 145.8 206.163 178.2C206.163 210.4 181.363 224.2 157.163 224.2ZM139.563 168.2C139.563 193 147.763 215 160.563 215C168.363 215 174.163 207.2 174.163 186.6C174.163 162 166.363 140 153.163 140C145.163 140 139.563 148 139.563 168.2ZM268.686 224.2C244.086 224.2 219.086 209.4 219.086 177C219.086 144.8 244.086 131 268.086 131C292.886 131 317.686 145.8 317.686 178.2C317.686 210.4 292.886 224.2 268.686 224.2ZM251.086 168.2C251.086 193 259.286 215 272.086 215C279.886 215 285.686 207.2 285.686 186.6C285.686 162 277.886 140 264.686 140C256.686 140 251.086 148 251.086 168.2ZM369.48 224C351.08 224 339.88 213.8 339.88 194.4V150.6C339.88 143.6 338.28 142.2 333.68 142.2H324.68V135.8C341.28 132 349.28 124.4 356.08 113.4C357.68 110.8 359.08 110 361.68 110H365.28C368.28 110 370.08 111.8 370.08 114.8L369.88 127.2C369.88 131.6 372.08 132.8 382.28 132.8H395.28V143.4L382.28 142.6C372.08 142 369.88 143.8 369.88 151V193.4C369.88 204.4 371.08 211.8 380.88 211.8C383.48 211.8 387.48 211.4 391.28 208.6C393.88 211.8 394.88 214.6 392.28 217C387.68 221 379.48 224 369.48 224Z" fill="black"/>
<path d="M122.8 374.2C100.6 374.2 80 367.2 80 352.2C80 333.4 112 336 96.8 332C90 329.8 85 324 85 317.2C85 309.4 91.6 302.2 104.8 300.6C93.4 294.8 86.8 285.2 86.8 272.8C86.8 255 99.2 240 127 240C142.4 240 154.4 244.8 162.4 253.2C162.6 246.4 166.2 240.6 174.4 240.6C179.8 240.6 185.6 243.2 185.6 251.4C185.6 258.8 180.4 262.8 174 261.4C169.4 260.6 168 263 168.2 266.2C168.4 269 169 271.2 169 273.8C169 290.6 156.6 305.6 131.6 305.6C125.8 305.6 122 304.8 118.4 304.8C113.4 304.8 111.2 306 111.2 309C111.2 312.2 114.4 313.6 124.4 315.4L144.6 319.2C164.2 322.8 180.2 327.6 180.2 341.8C180.2 360 154.6 374.2 122.8 374.2ZM107.2 351.2C107.2 358.4 115 366.6 131.2 366.6C145.4 366.6 152.6 360.4 152.6 351.4C152.6 343.4 147 342.8 131.4 339.6L126 338.6C116.4 336.6 107.2 343.2 107.2 351.2ZM115.2 266.8C115.2 280 118.6 297.2 130.4 297.2C140.4 297.2 140.4 285 140.4 278.8C140.4 265.8 137.2 248.4 125.2 248.4C115.4 248.4 115.2 260.6 115.2 266.8ZM193.323 324.2C202.723 323.6 206.123 320.6 206.123 309.8V264C206.123 254.6 200.923 253 193.523 253.6V245.8L226.123 240.4C232.923 239.4 236.123 242.4 236.123 246.8V249.8C236.123 254.6 239.723 254.8 242.523 251.2C248.123 244.6 254.923 239.2 265.323 239.2C277.723 239.2 288.123 247.2 288.123 259.4C288.123 268.8 281.523 276.4 270.323 276.4C250.323 276.4 263.923 254.4 251.923 254.4C243.523 254.4 236.123 264.8 236.123 291V309.8C236.123 320.6 239.523 323.6 249.923 324.2V332H193.323V324.2ZM345.686 333.2C321.086 333.2 296.086 318.4 296.086 286C296.086 253.8 321.086 240 345.086 240C369.886 240 394.686 254.8 394.686 287.2C394.686 319.4 369.886 333.2 345.686 333.2ZM328.086 277.2C328.086 302 336.286 324 349.086 324C356.886 324 362.686 316.2 362.686 295.6C362.686 271 354.886 249 341.686 249C333.686 249 328.086 257 328.086 277.2ZM442.159 333.2C428.159 333.2 412.959 327.4 412.959 296V264.2C412.959 255 407.759 253.4 400.359 253.6V245.8L432.959 240.4C439.759 239.4 442.959 242.4 442.959 248.4V291.2C442.959 305.2 448.759 315.2 459.559 315.2C470.559 315.2 476.159 305.2 476.159 291.2V264.2C476.159 255 470.959 253.4 463.559 253.6V245.8L495.959 240.4C502.959 239.4 506.159 242.4 506.159 248.4V311.6C506.159 318.2 508.759 322.6 514.559 320.2V324.6C511.759 331.4 504.559 333.2 497.759 333.2C483.359 333.2 479.359 324.2 478.359 319.8C477.759 317 476.159 315.6 474.759 315.6C473.359 315.6 472.359 316.8 471.359 318.2C465.759 325.8 457.959 333.2 442.159 333.2ZM624.331 333.2C611.531 333.2 602.331 326 602.331 311.2V278.8C602.331 267 596.331 257 585.731 257C574.931 257 569.131 267 569.131 278.8V309.8C569.131 320.6 572.531 323.6 581.531 324.2V332H526.331V324.2C535.731 323.6 539.131 320.6 539.131 309.8V264C539.131 254.6 533.931 253 526.531 253.6V245.8L559.131 240.4C565.931 239.4 569.131 242.4 569.131 246.8C569.131 253.4 573.331 254.8 575.931 251.6C581.131 245 588.331 239.2 602.931 239.2C616.931 239.2 632.331 245 632.331 274.2V311.6C632.331 318.2 634.931 322.4 640.731 320.2V324.6C637.931 331.4 630.731 333.2 624.331 333.2ZM688.973 333.2C670.173 333.2 650.773 317.8 650.773 288.2C650.773 256.4 672.573 240 693.773 240C715.773 240 721.573 257.2 721.573 237V225C721.573 215.6 716.373 214 708.973 214.6V206.8L741.573 201.4C748.373 200.4 751.573 203.4 751.573 209.4V311.6C751.573 318.2 754.173 322.6 759.973 320.2V324.6C757.173 331.4 749.973 333.2 743.773 333.2C736.973 333.2 728.373 331 725.973 325C724.373 321.2 722.573 319.2 719.573 319.2C715.573 319.2 707.573 333.2 688.973 333.2ZM682.973 277.8C682.973 297.6 691.773 317 704.573 317C712.373 317 721.573 311.4 721.573 294.6V285.2C721.573 259.2 709.373 249 699.373 249C689.173 249 682.973 261.6 682.973 277.8ZM810.239 333.2C797.039 333.2 785.439 329.2 778.239 324.2C772.839 312.8 772.239 300 780.639 300C784.039 300 786.039 301.4 787.039 304.6C791.839 319.4 800.239 324.4 810.639 324.4C824.639 324.4 826.239 316.8 826.239 312.4C826.239 306.8 821.239 304 808.439 300.6C791.039 295.6 774.839 287.2 774.839 268.6C774.839 249.8 792.839 240 813.439 240C825.839 240 838.039 243.6 845.239 249C850.639 260.2 851.239 273 842.839 273C839.439 273 837.239 271.4 836.239 268.2C831.439 253.2 822.639 248.2 813.239 248.2C804.639 248.2 801.439 252.8 801.439 258.8C801.439 266 808.039 270.6 815.639 272.6C830.039 276.4 853.439 282 853.439 303.8C853.439 324.2 831.639 333.2 810.239 333.2Z" fill="black"/>
</svg>
